<?xml version="1.0" standalone="no"?>
<!DOCTYPE svg PUBLIC "-//W3C//DTD SVG 20010904//EN"
 "http://www.w3.org/TR/2001/REC-SVG-20010904/DTD/svg10.dtd">
<svg version="1.0" xmlns="http://www.w3.org/2000/svg"
 width="1990.000000pt" height="1990.000000pt" viewBox="0 0 1990.000000 1990.000000"
 preserveAspectRatio="xMidYMid meet">
<metadata>
Created by potrace 1.11, written by Peter Selinger 2001-2013
</metadata>
<g transform="translate(0.000000,1990.000000) scale(0.100000,-0.100000)"
fill="#000000" stroke="none">
<path d="M9913 19878 c-10 -13 -32 -52 -48 -88 -76 -178 -182 -374 -228 -422
-7 -7 -24 -31 -39 -53 -15 -22 -39 -53 -52 -68 -14 -16 -39 -46 -56 -67 -18
-22 -41 -49 -52 -62 -51 -57 -130 -172 -149 -215 -49 -112 -64 -190 -62 -325
1 -98 21 -178 64 -257 l29 -55 -32 30 c-17 16 -38 34 -45 39 -7 6 -18 15 -25
21 -23 19 -159 95 -206 117 -88 38 -214 64 -303 61 -194 -6 -440 -114 -554
-243 -16 -19 -34 -39 -40 -46 -35 -38 -89 -152 -110 -230 -20 -76 -32 -216
-24 -275 14 -96 19 -120 35 -167 18 -53 55 -126 67 -131 4 -2 7 -10 7 -17 0
-18 120 -128 166 -151 238 -122 313 -196 298 -294 -8 -49 -50 -98 -93 -106
-17 -4 -31 -8 -31 -11 0 -2 15 -26 32 -54 62 -94 156 -139 303 -145 221 -9
365 91 409 282 31 138 8 231 -90 372 -67 96 -59 147 32 199 106 61 199 7 288
-167 59 -114 105 -261 123 -392 14 -100 7 -358 -11 -408 -3 -8 -7 -26 -10 -40
-14 -79 -66 -196 -124 -280 -105 -152 -246 -249 -432 -299 -107 -28 -150 -34
-280 -36 -133 -2 -233 14 -307 50 -62 31 -138 111 -174 184 l-26 54 34 34
c165 171 156 450 -21 610 -85 77 -173 111 -287 111 -158 0 -287 -85 -354 -231
-89 -194 -37 -406 131 -534 38 -29 77 -53 87 -53 26 0 31 -24 19 -86 -38 -187
-164 -291 -461 -379 -103 -30 -178 -40 -301 -39 -285 2 -520 164 -668 459 -40
79 -85 202 -96 260 -29 152 -37 216 -36 320 0 205 28 309 99 372 64 57 200 31
229 -44 9 -23 7 -46 -12 -123 -44 -178 -19 -298 89 -418 114 -127 299 -146
485 -50 112 57 178 142 197 251 4 25 2 27 -34 27 -113 0 -168 111 -113 225 20
41 142 197 197 254 24 23 70 124 83 181 26 109 10 310 -30 389 -4 9 -16 36
-26 61 -47 113 -168 252 -268 309 -95 54 -150 72 -276 88 -330 42 -609 -98
-808 -404 -26 -39 -52 -80 -59 -90 -10 -15 -12 -1 -13 72 -1 50 -3 97 -5 105
-29 148 -50 190 -150 298 -85 92 -171 135 -375 187 -161 41 -428 132 -682 231
-244 95 -245 95 -282 40 -15 -24 -14 -30 19 -123 19 -54 39 -107 44 -118 6
-11 46 -114 90 -230 44 -115 116 -304 160 -420 44 -115 166 -437 271 -715 105
-278 195 -514 200 -525 4 -11 16 -40 25 -65 154 -409 287 -759 295 -775 10
-22 94 -246 117 -310 7 -22 18 -49 22 -60 5 -11 37 -94 71 -185 34 -91 65
-174 70 -185 5 -11 30 -76 55 -145 26 -69 62 -163 80 -210 66 -168 315 -847
315 -858 0 -6 8 -15 18 -20 9 -4 1655 -7 3656 -7 3168 1 3640 3 3647 16 5 7
27 66 50 129 23 63 47 129 54 145 7 17 22 59 35 95 12 36 26 74 31 85 4 11 42
110 83 220 40 110 113 304 161 430 125 331 265 698 272 715 3 8 7 20 9 25 3
11 310 819 323 850 5 11 18 47 31 80 12 33 26 69 30 80 5 11 37 94 71 185 125
335 239 636 248 655 5 11 19 47 32 80 64 175 129 346 279 735 169 436 159 400
118 447 -29 31 -72 21 -263 -61 -32 -14 -124 -48 -240 -90 -214 -76 -344 -117
-460 -146 -183 -45 -263 -85 -352 -175 -103 -105 -132 -162 -157 -305 -3 -14
-5 -65 -6 -115 -1 -49 -4 -83 -7 -76 -9 23 -108 173 -132 201 -220 253 -435
340 -755 306 -302 -33 -537 -270 -590 -597 -30 -179 10 -344 109 -454 120
-135 184 -227 199 -288 19 -78 -51 -167 -131 -167 -50 0 -51 -3 -22 -87 49
-147 238 -256 429 -249 99 3 170 36 234 107 40 45 95 138 104 179 13 55 8 146
-11 231 -13 52 -22 100 -21 107 1 6 2 19 3 26 2 30 68 68 123 71 92 5 136 -29
175 -135 25 -67 34 -133 34 -259 -1 -395 -160 -751 -414 -924 -209 -143 -456
-161 -765 -57 -242 81 -365 201 -387 377 l-7 48 59 30 c146 75 233 224 229
392 -7 288 -254 475 -519 393 -250 -77 -373 -361 -258 -595 17 -33 48 -79 70
-102 l40 -42 -27 -52 c-38 -75 -114 -154 -177 -184 -137 -68 -429 -67 -632 1
-96 32 -155 62 -219 109 -213 160 -332 441 -320 762 3 93 9 143 30 248 25 127
95 294 160 381 17 23 49 54 71 69 35 23 47 26 94 21 65 -6 120 -45 137 -97 13
-39 9 -49 -56 -148 -61 -91 -82 -147 -85 -222 -5 -136 48 -261 138 -327 75
-56 136 -75 242 -79 135 -4 245 31 303 96 33 37 76 101 71 106 -3 2 -17 6 -33
9 -39 7 -62 30 -81 81 -28 72 2 137 95 206 32 23 75 48 185 109 187 103 284
289 284 547 -1 304 -146 523 -426 644 -164 71 -305 89 -448 59 -149 -31 -321
-120 -433 -224 l-33 -31 30 55 c45 82 63 153 64 260 1 111 -6 164 -33 249 -37
110 -60 145 -237 360 -172 207 -233 305 -357 573 -64 139 -98 166 -143 116z"/>
<path d="M7622 13112 l-3673 -2 4 -3773 c2 -2074 7 -3791 10 -3815 3 -24 8
-78 12 -120 9 -98 10 -112 31 -272 4 -33 19 -128 30 -195 28 -173 117 -556
159 -685 8 -25 35 -110 61 -190 48 -149 179 -488 195 -505 5 -5 9 -14 9 -21 0
-28 207 -436 303 -597 26 -43 47 -83 47 -88 0 -5 5 -9 10 -9 6 0 10 -5 10 -11
0 -17 199 -314 312 -464 286 -382 630 -744 976 -1028 54 -43 110 -89 125 -103
160 -135 597 -422 851 -558 411 -221 708 -341 1251 -506 61 -18 385 -95 440
-104 17 -2 66 -11 110 -20 44 -8 103 -18 130 -21 28 -4 68 -11 90 -15 22 -5
391 -9 820 -10 628 0 798 3 870 14 50 8 108 17 130 20 22 3 50 7 61 10 12 2
39 7 60 10 22 4 91 18 154 32 737 163 1368 424 1989 823 79 51 149 97 155 102
6 5 65 48 131 96 108 77 279 211 345 269 14 12 47 42 74 66 239 209 476 454
677 698 404 490 716 1020 959 1630 104 260 238 712 286 960 8 43 33 183 39
220 3 19 8 42 10 50 2 8 7 39 10 69 4 30 8 61 10 70 1 9 6 45 10 81 4 36 8 72
10 81 2 8 6 53 10 100 4 46 9 104 13 129 3 25 7 1740 9 3813 l3 3767 -27 0
c-194 3 -5467 4 -8301 2z"/>
</g>
</svg>
